<svg width="121" height="24" viewBox="0 0 121 24" fill="none" xmlns="http://www.w3.org/2000/svg">
<g clip-path="url(#clip0_1_94)">
<g clip-path="url(#clip1_1_94)">
<path fill-rule="evenodd" clip-rule="evenodd" d="M10.7091 16.2417L14.0499 19.6553L11.263 22.6237C10.3592 23.5862 8.89371 23.5862 7.98998 22.6237L1.03497 15.2161C0.131246 14.2533 0.131246 12.6927 1.03497 11.7302C1.93899 10.7677 3.40422 10.7677 4.30795 11.7302L9.62647 17.3948L10.7091 16.2417ZM11.5775 15.3168L14.5365 12.1652L17.8092 15.6512L15.0845 18.5533L11.5775 15.3168Z" fill="#CECCD3"/>
<path fill-rule="evenodd" clip-rule="evenodd" d="M24.9657 18.4878L21.4785 15.2299L29.6732 6.50205C30.5769 5.53952 32.0422 5.53952 32.9462 6.50205C33.8499 7.46458 33.8499 9.02515 32.9462 9.98798L24.9657 18.4878ZM23.8812 19.6428L21.0826 22.6235C20.1785 23.586 18.7133 23.586 17.8096 22.6235L5.94483 9.98675C5.0411 9.02391 5.0411 7.46334 5.94483 6.50082C6.84855 5.53798 8.31379 5.53798 9.2178 6.50082L19.4461 17.3946L20.5965 16.1693L23.8812 19.6428Z" fill="#CECCD3"/>
<path fill-rule="evenodd" clip-rule="evenodd" d="M19.9373 14.4306L23.1948 10.9285L29.2658 17.3946L34.5832 11.7312C35.4872 10.7687 36.9524 10.7687 37.8562 11.7312C38.7599 12.6941 38.7599 14.2546 37.8562 15.2172L30.9023 22.6235C29.9986 23.586 28.5333 23.586 27.6296 22.6235L19.9373 14.4306ZM18.5878 12.9933L10.8548 4.75719C9.95107 3.79466 9.95107 2.2341 10.8548 1.27157C11.7588 0.308729 13.224 0.308729 14.1278 1.27157L21.8688 9.51626L18.5878 12.9933Z" fill="#CECCD3"/>
<path fill-rule="evenodd" clip-rule="evenodd" d="M28.0364 1.2728C27.1327 0.310271 25.6675 0.310271 24.7634 1.2728L14.5363 12.1653L17.8093 15.6513L28.0364 4.75874C28.9401 3.7959 28.9401 2.23533 28.0364 1.2728Z" fill="#CECCD3"/>
<path fill-rule="evenodd" clip-rule="evenodd" d="M50.5148 2.97507H47.6688V20.7804H58.0965V18.0915H50.5148V2.97507ZM64.2559 8.3288C65.9862 8.3288 67.1474 9.07977 67.7849 10.0003L67.9215 8.57105H70.3804V20.7804H67.9215L67.7849 19.3512C67.1474 20.2717 65.9862 21.0227 64.2559 21.0227C61.1367 21.0227 59.0193 18.3337 59.0193 14.6757C59.0193 10.9935 61.1367 8.3288 64.2559 8.3288ZM64.8478 10.8966C63.0719 10.8966 61.7969 12.3744 61.7969 14.6757C61.7969 16.9771 63.0719 18.4548 64.8478 18.4548C66.2139 18.4548 67.0336 17.6796 67.6483 16.638V12.7135C67.0336 11.6718 66.2139 10.8966 64.8478 10.8966ZM77.2684 4.47702H74.5362V8.57105H72.3733V11.042H74.5362V16.4684C74.5362 19.4238 76.1983 21.0227 78.8166 21.0227C79.955 21.0227 80.7974 20.6835 81.3666 20.2959L80.638 18.0188C80.2965 18.2368 79.7956 18.4064 79.067 18.4064C77.997 18.4064 77.2684 17.6796 77.2684 16.4442V11.042H80.7291V8.57105H77.2684V4.47702ZM86.6836 4.47702H83.9514V8.57105H81.7885V11.042H83.9514V16.4684C83.9514 19.4238 85.6135 21.0227 88.2318 21.0227C89.3702 21.0227 90.2126 20.6835 90.7818 20.2959L90.0532 18.0188C89.7117 18.2368 89.2108 18.4064 88.4822 18.4064C87.4121 18.4064 86.6836 17.6796 86.6836 16.4442V11.042H90.1443V8.57105H86.6836V4.47702ZM95.3474 8.57105H92.6153V20.7804H95.3474V8.57105ZM93.9813 2.87817C93.0251 2.87817 92.2965 3.62915 92.2965 4.67082C92.2965 5.7125 93.0251 6.46347 93.9813 6.46347C94.9603 6.46347 95.6889 5.7125 95.6889 4.67082C95.6889 3.62915 94.9603 2.87817 93.9813 2.87817ZM103.601 8.3288C100.072 8.3288 97.7273 10.9935 97.7273 14.6757C97.7273 18.3337 100.095 21.0227 103.624 21.0227C105.696 21.0227 107.267 20.0295 108.292 18.3337L106.334 16.7106C105.787 17.6796 104.899 18.4791 103.647 18.4791C101.621 18.4791 100.505 16.8075 100.505 14.6757C100.505 12.5197 101.575 10.8724 103.624 10.8724C104.899 10.8724 105.742 11.6476 106.265 12.6166L108.246 11.0178C107.222 9.32202 105.696 8.3288 103.601 8.3288ZM114.975 8.3288C118.504 8.3288 120.234 11.1389 120.234 14.5546V15.5721H112.129C112.197 17.5101 113.29 18.576 115.202 18.576C116.546 18.576 117.525 17.9461 118.048 17.1709L119.938 18.8182C118.8 20.2717 117.297 21.0227 115.18 21.0227C111.628 21.0227 109.351 18.3579 109.351 14.7C109.351 11.0178 111.673 8.3288 114.975 8.3288ZM114.929 10.6544C113.313 10.6544 112.22 11.793 112.129 13.4887H117.547C117.479 11.8172 116.568 10.6544 114.929 10.6544Z" fill="white" fill-opacity="0.8"/>
</g>
</g>
<defs>
<clipPath id="clip0_1_94">
<rect width="120" height="22.8" fill="white" transform="translate(0.357178 0.54541)"/>
</clipPath>
<clipPath id="clip1_1_94">
<rect width="120" height="22.8" fill="white" transform="translate(0.357178 0.54541)"/>
</clipPath>
</defs>
</svg>
