<svg width="63" height="21" viewBox="0 0 63 21" fill="none" xmlns="http://www.w3.org/2000/svg">
<g clip-path="url(#clip0_1_44)">
<g clip-path="url(#clip1_1_44)">
<path d="M26.9676 0.957548L16.5866 8.74679C16.0987 6.83091 14.9712 5.12794 13.3817 3.90628C11.7921 2.68461 9.8311 2.01371 7.80757 1.99933H0.357147V19.9037H7.80757C9.84188 19.9304 11.8239 19.2749 13.422 18.0466C15.0201 16.8184 16.1373 15.0919 16.5866 13.1562L26.9676 20.9454L37.3485 13.1562V19.9037H49.0581V16.2695H41.3345V1.98722H37.0754V8.73465L27.2284 16.5239L25.105 14.7068L29.8981 11.0726L34.9519 7.18408L32.0215 4.8461L22.1745 12.3688L20.0511 10.5517L29.8981 3.28341L26.9676 0.945435V0.957548ZM4.34313 5.62138H7.53442C8.19479 5.62263 8.84713 5.76313 9.4467 6.03326C10.0557 6.30651 10.6041 6.69335 11.061 7.17196C11.5417 7.67573 11.9209 8.26343 12.1785 8.90422C12.708 10.2661 12.708 11.7701 12.1785 13.132C11.9376 13.7709 11.58 14.3619 11.123 14.8764C10.6789 15.3821 10.1338 15.7942 9.52117 16.0878C8.89011 16.385 8.19796 16.5383 7.49715 16.536H4.34313V5.6335V5.62138ZM62.3447 16.2695V19.9037H50.6475V1.98722H54.9067V16.2695H62.3571H62.3447Z" fill="white" fill-opacity="0.8"/>
</g>
</g>
<defs>
<clipPath id="clip0_1_44">
<rect width="62" height="20" fill="white" transform="translate(0.357147 0.945435)"/>
</clipPath>
<clipPath id="clip1_1_44">
<rect width="62" height="20" fill="white" transform="translate(0.357147 0.945435)"/>
</clipPath>
</defs>
</svg>
