<svg width="68" height="22" viewBox="0 0 68 22" fill="none" xmlns="http://www.w3.org/2000/svg">
<g clip-path="url(#clip0_1_57)">
<g clip-path="url(#clip1_1_57)">
<path d="M16.9861 21.4455L54.2397 18.0447H13.7571L16.9861 21.4455Z" fill="white" fill-opacity="0.8"/>
<path d="M62.877 4.01624C62.1128 4.03504 61.3699 4.28599 60.7379 4.73891V4.2713H58.2355V15.8341H60.7379V9.07494C60.7203 8.77881 60.7604 8.48203 60.8559 8.20288C60.9514 7.92373 61.1002 7.66815 61.293 7.45188C61.4859 7.23562 61.7188 7.06326 61.9773 6.94544C62.2359 6.82762 62.5146 6.76684 62.7963 6.76684C63.078 6.76684 63.3568 6.82762 63.6153 6.94544C63.8739 7.06326 64.1067 7.23562 64.2996 7.45188C64.4925 7.66815 64.6412 7.92373 64.7367 8.20288C64.8322 8.48203 64.8724 8.77881 64.8548 9.07494V15.8766H67.3572V9.07494C67.3572 6.26927 65.5409 4.01624 62.877 4.01624Z" fill="white" fill-opacity="0.8"/>
<path d="M52.4639 3.97375C49.5579 3.97375 47.4995 6.65189 47.4995 10.0527C47.4995 13.6236 50.0826 16.1316 52.7061 16.1316C54.038 16.1316 55.6928 15.664 57.1055 13.5385L54.8856 12.1782C53.1904 14.8138 50.3248 13.496 50.0019 10.8179H57.1862C57.832 6.73691 55.2892 3.97375 52.4639 3.97375ZM50.1633 8.56485C50.688 5.88671 54.1591 5.71667 54.6434 8.56485H50.1633Z" fill="white" fill-opacity="0.8"/>
<path d="M41.7843 12.4382C41.7621 12.9681 41.8414 13.4973 42.0176 13.9942C42.1937 14.491 42.4631 14.9455 42.8097 15.3303C43.1562 15.7152 43.5729 16.0225 44.0347 16.2341C44.4965 16.4456 44.994 16.5571 45.4976 16.5617C46.3484 16.5303 47.1793 16.2823 47.9193 15.839L46.3048 13.5435C46.0569 13.7297 45.7616 13.8334 45.4572 13.841C45.2909 13.8361 45.1273 13.7951 44.9767 13.7206C44.8261 13.6461 44.6917 13.5397 44.5819 13.4081C44.4721 13.2765 44.3892 13.1224 44.3384 12.9555C44.2876 12.7887 44.27 12.6125 44.2867 12.4382V7.46451H46.4259V4.70136H44.2867V1.81067H41.7843V4.70136H40.4524V7.46451H41.7843V12.4382Z" fill="white" fill-opacity="0.8"/>
<path d="M35.3507 16.1317C36.1149 16.1129 36.8578 15.8619 37.4898 15.409V15.8341H39.9922V4.27136H37.4898V11.073C37.5074 11.3691 37.4673 11.6659 37.3718 11.945C37.2763 12.2242 37.1276 12.4798 36.9347 12.696C36.7418 12.9123 36.5089 13.0847 36.2504 13.2025C35.9918 13.3203 35.7131 13.3811 35.4314 13.3811C35.1497 13.3811 34.871 13.3203 34.6124 13.2025C34.3539 13.0847 34.121 12.9123 33.9281 12.696C33.7352 12.4798 33.5865 12.2242 33.491 11.945C33.3955 11.6659 33.3553 11.3691 33.373 11.073V4.27136H30.8705V11.073C30.8705 13.8786 32.6868 16.1317 35.3507 16.1317Z" fill="white" fill-opacity="0.8"/>
<path d="M23.9686 11.1155L27.6818 15.8766H31.1529L26.1884 9.71264L30.4667 4.27135H26.9957L23.9686 8.30981V0.445435H21.4258V15.8766H23.9686V11.1155Z" fill="white" fill-opacity="0.8"/>
<path d="M17.5108 15.324V15.8341H20.0132V4.27133H17.5108V4.78145C16.8289 4.26314 16.0108 3.98089 15.1699 3.97375C12.3446 3.97375 10.165 6.6944 10.165 10.0527C10.165 13.411 12.3042 16.1316 15.1699 16.1316C16.0118 16.1311 16.8318 15.8482 17.5108 15.324ZM12.7078 10.0952C12.7078 8.26728 13.7168 6.82193 15.1295 6.82193C16.5421 6.82193 17.5108 8.26728 17.5108 10.0952C17.5108 11.9231 16.5421 13.3685 15.1295 13.3685C13.7168 13.3685 12.7078 11.9231 12.7078 10.0952Z" fill="white" fill-opacity="0.8"/>
<path d="M9.35778 6.3543C9.35671 5.03554 8.85884 3.77112 7.97347 2.83862C7.0881 1.90611 5.88759 1.38174 4.63549 1.38062H0.357178V15.8341H2.98067V11.3705H4.79694L7.98549 15.8341H11.2548L7.38007 10.4353C7.99841 9.97411 8.50136 9.36192 8.84581 8.65115C9.19026 7.94039 9.36593 7.15225 9.35778 6.3543ZM4.67585 8.64985H2.98067V4.14377H4.67585C5.24319 4.14377 5.78729 4.38115 6.18846 4.80367C6.58963 5.2262 6.81501 5.79927 6.81501 6.39681C6.81501 6.99435 6.58963 7.56742 6.18846 7.98995C5.78729 8.41247 5.24319 8.64985 4.67585 8.64985Z" fill="white" fill-opacity="0.8"/>
</g>
</g>
<defs>
<clipPath id="clip0_1_57">
<rect width="67" height="21" fill="white" transform="translate(0.357178 0.445435)"/>
</clipPath>
<clipPath id="clip1_1_57">
<rect width="67" height="21" fill="white" transform="translate(0.357178 0.445435)"/>
</clipPath>
</defs>
</svg>
