<svg width="88" height="18" viewBox="0 0 88 18" fill="none" xmlns="http://www.w3.org/2000/svg">
<g clip-path="url(#clip0_1_48)">
<g clip-path="url(#clip1_1_48)">
<path d="M58.2131 15.1286C59.3663 15.1538 60.4822 14.7112 61.3161 13.8979L62.8557 15.5895C61.8384 16.6558 60.4323 17.4455 58.2406 17.4455C54.4857 17.4455 52.0622 14.9041 52.0622 11.4648C52.0471 10.694 52.1811 9.92766 52.4565 9.20974C52.7319 8.49181 53.1433 7.83635 53.6672 7.28085C54.1911 6.72536 54.8171 6.28075 55.5096 5.97244C56.202 5.66414 56.9472 5.49821 57.7025 5.48413H57.9107C61.6381 5.48413 63.7513 8.37826 63.5667 12.3948H54.7449C55.0591 14.0623 56.206 15.1245 58.2131 15.1245V15.1286ZM60.8997 10.4667C60.664 8.91139 59.7528 7.76496 57.9264 7.76496C57.1592 7.71922 56.4036 7.9729 55.8128 8.47458C55.2221 8.97626 54.8403 9.68841 54.7449 10.4667H60.8997Z" fill="white" fill-opacity="0.8"/>
<path d="M0.357147 15.0042L7.1404 7.97333H0.518186V5.76465H10.2826V8.01742L3.49936 15.0483H10.3729V17.253H0.357147V15.0042Z" fill="white" fill-opacity="0.8"/>
<path d="M17.989 15.1286C19.1421 15.1538 20.258 14.7112 21.0919 13.8979L22.6316 15.5895C21.6143 16.6558 20.2082 17.4455 18.0165 17.4455C14.2615 17.4455 11.8381 14.9041 11.8381 11.4648C11.823 10.6946 11.9567 9.92897 12.2316 9.21156C12.5065 8.49414 12.9172 7.83903 13.4403 7.28365C13.9633 6.72826 14.5885 6.28348 15.28 5.97471C15.9715 5.66595 16.7158 5.49925 17.4705 5.48413H17.6787C21.4061 5.48413 23.5193 8.37826 23.3347 12.3948H14.5208C14.835 14.0623 15.9819 15.1245 17.989 15.1245V15.1286ZM20.6756 10.4667C20.4399 8.91139 19.5287 7.76496 17.7022 7.76496C16.935 7.71922 16.1794 7.9729 15.5887 8.47458C14.9979 8.97626 14.6161 9.68841 14.5208 10.4667H20.6756Z" fill="white" fill-opacity="0.8"/>
<path d="M37.9734 11.4768C37.9734 7.80101 40.6639 5.50415 43.6254 5.50415C44.336 5.49477 45.04 5.64421 45.688 5.94197C46.336 6.23973 46.9123 6.67861 47.3764 7.2278V0.445435H49.7724V17.221H47.3764V15.6176C46.921 16.1898 46.3453 16.6501 45.6919 16.9644C45.0385 17.2788 44.3242 17.439 43.6018 17.4334C42.8565 17.4276 42.1196 17.2721 41.4331 16.9757C40.7467 16.6792 40.1242 16.2477 39.6012 15.7058C39.0782 15.1638 38.6649 14.522 38.3849 13.817C38.1049 13.1121 37.9637 12.3577 37.9694 11.597C37.9694 11.5489 37.9694 11.5049 37.9694 11.4608L37.9734 11.4768ZM47.51 11.4367C47.4949 10.4638 47.1038 9.53637 46.4217 8.85651C45.7396 8.17666 44.8218 7.79947 43.8684 7.80714C42.915 7.81481 42.0032 8.20671 41.3317 8.89745C40.6601 9.5882 40.2833 10.5218 40.2833 11.4948C40.2833 12.4679 40.6601 13.4015 41.3317 14.0922C42.0032 14.783 42.915 15.1749 43.8684 15.1825C44.8218 15.1902 45.7396 14.813 46.4217 14.1332C47.1038 13.4533 47.4949 12.5259 47.51 11.553V11.4367Z" fill="white" fill-opacity="0.8"/>
<path d="M65.1183 14.7838L67.2864 13.6334C67.574 14.1549 67.9955 14.5865 68.5056 14.8817C69.0157 15.177 69.595 15.3247 70.1811 15.309C71.5362 15.309 72.2393 14.5994 72.2393 13.7937C72.2393 12.8758 70.9274 12.6674 69.4899 12.3707C67.5692 11.9699 65.5621 11.3125 65.5621 8.94748C65.5621 7.13164 67.255 5.45609 69.9258 5.47613C72.0272 5.47613 73.5865 6.32593 74.4703 7.70485L72.4867 8.83123C72.2085 8.41091 71.8299 8.06995 71.3866 7.84059C70.9433 7.61123 70.45 7.50104 69.9533 7.52046C68.665 7.52046 68.0091 8.16583 68.0091 8.89938C68.0091 9.72513 69.0499 9.95762 70.676 10.3224C72.5299 10.7232 74.6313 11.3566 74.6313 13.7456C74.6313 15.349 73.2762 17.4695 70.0633 17.4455C67.7066 17.4455 66.0609 16.4794 65.1143 14.7798" fill="white" fill-opacity="0.8"/>
<path d="M81.1433 12.1182L79.2422 14.2306V17.221H76.8463V0.445435H79.2422V11.4287L84.3287 5.72862H87.247L82.8362 10.647L87.357 17.221H84.6469L81.1433 12.1182Z" fill="white" fill-opacity="0.8"/>
<path d="M30.7305 5.5001C27.8829 5.5001 25.4987 7.38409 25.4987 10.5107V17.2209H27.9418V10.8073C27.9418 8.92335 29.0023 7.79697 30.813 7.79697C32.6237 7.79697 33.5271 8.92335 33.5271 10.8073V17.2209H35.9584V10.5067C35.9584 7.38008 33.5742 5.49609 30.7266 5.49609" fill="white" fill-opacity="0.8"/>
</g>
</g>
<defs>
<clipPath id="clip0_1_48">
<rect width="87" height="17" fill="white" transform="translate(0.357147 0.445435)"/>
</clipPath>
<clipPath id="clip1_1_48">
<rect width="87" height="17" fill="white" transform="translate(0.357147 0.445435)"/>
</clipPath>
</defs>
</svg>
